<?xml version="1.0" ?><!DOCTYPE svg  PUBLIC '-//W3C//DTD SVG 1.1//EN'  'http://www.w3.org/Graphics/SVG/1.1/DTD/svg11.dtd'><svg enable-background="new 0 0 128 128" id="Слой_1" version="1.1" viewBox="0 0 128 128" xml:space="preserve" xmlns="http://www.w3.org/2000/svg" xmlns:xlink="http://www.w3.org/1999/xlink"><g><g><g><g opacity="0.1"><g><path d="M105.9,103.1c1,1.3,1.8,2.7,2.5,4.2c0.2-0.2,0.4-0.4,0.6-0.6C108.1,105.4,107,104.2,105.9,103.1z" fill="#04080A"/></g></g></g></g></g><circle cx="64" cy="64" fill="#C1E1CA" r="62"/><circle cx="64" cy="64" fill="#C1E1CA" r="62"/><g><g><g><path d="M121.4,35.8c1.8-0.4,2.9-2.1,2.5-3.9c-0.4-1.8-2.1-2.9-3.9-2.5l-4,0.9c1.3,1.9,2.4,3.9,3.4,6L121.4,35.8z     " fill="#EEEBA8"/><path d="M119.4,36.2c-1-2.1-2.2-4.1-3.4-6l-20.2,4.3c-0.9,0.2-1.7,0.8-2.2,1.6l-43.9,76L8.9,88.6     c-0.6-0.4-1.4-0.5-2-0.4c-1,0.1-1.9,0.7-2.4,1.6c-0.9,1.6-0.4,3.6,1.2,4.5l6.6,3.8l36.9,21.3c0.3,0.2,0.7,0.3,1.1,0.4l26.8,4.8     c1.7-0.4,3.3-0.8,4.9-1.3l0,0l11.5-19.8c0.4-0.7,0.5-1.6,0.3-2.4l-9-36.5l13.8-23.9L119.4,36.2z M87.1,101.3L77.4,118l-21.3-3.8     L80,72.8L87.1,101.3z" fill="#EEEBA8"/></g><path d="M123.9,31.9c-0.4-1.8-2.1-2.9-3.9-2.5l-4,0.9l-13.6,2.9l1.5,6.4l15.5-3.3l2-0.4    C123.2,35.4,124.3,33.6,123.9,31.9z" fill="#498984"/><g><path d="M103.6,32.8c-0.2-0.7-0.8-1.1-1.5-0.9c-0.7,0.2-1.1,0.8-0.9,1.5l1.5,6.4c0.1,0.6,0.6,1,1.2,1     c0.1,0,0.2,0,0.3,0c0.7-0.2,1.1-0.8,0.9-1.5L103.6,32.8z" fill="#2D2E2D"/></g><path d="M82.9,84.4l4.2,16.9L77.4,118l-21.3-3.8l22.5-38.9l-3.4-7.2    L51,109.9c-0.7,1.3-2.3,1.7-3.6,1L9.1,88.7c-0.7-0.4-1.5-0.5-2.2-0.5c-0.9,0.1-1.7,0.5-2.3,1.3c-1.2,1.6-0.7,3.8,1,4.8l6.6,3.8    l36.9,21.3c0.3,0.2,0.7,0.3,1.1,0.4l26.8,4.8c1.7-0.4,3.3-0.8,4.9-1.3l0,0l10.7-18.4L82.9,84.4z" enable-background="new    " fill="#04080A" opacity="0.1"/><g opacity="0.15"><path d="M93.4,103.5c0.4-0.7,0.5-1.6,0.3-2.4l-0.2-0.8c-2.3-1.6-4.8-2.7-7.6-3.4l1.1,4.4L77.4,118l-19-3.4     c-0.4,2.1-0.6,4.4-0.4,6.6l19,3.4c1.7-0.4,3.3-0.8,4.9-1.3l0,0L93.4,103.5z" fill="#000204"/></g><path d="M80.2,71.5c-0.5-0.1-1,0.2-1.3,0.6L55,113.5c-0.2,0.4-0.2,0.8-0.1,1.2c0.2,0.4,0.5,0.6,0.9,0.7l21.3,3.8    c0.1,0,0.1,0,0.2,0c0.4,0,0.9-0.2,1.1-0.6l9.6-16.7c0.2-0.3,0.2-0.6,0.1-0.9l-7-28.6C81,72,80.7,71.6,80.2,71.5z M76.8,116.6    l-18.7-3.4L79.6,76l6.1,25.1L76.8,116.6z" fill="#2D2E2D"/><g><path d="M70,66.4L33.4,45.2c-1.1-0.6-2.6-0.3-3.2,0.9L9.1,82.7c-0.6,1.1-0.3,2.6,0.9,3.2L46.5,107     c1.1,0.6,2.6,0.3,3.2-0.9l21.1-36.6C71.5,68.4,71.2,67,70,66.4z" fill="#9E715F"/></g><g opacity="0.15"><path d="M70,66.4L33.4,45.2c-1.1-0.6-2.6-0.3-3.2,0.9L9.1,82.7c-0.6,1.1-0.3,2.6,0.9,3.2L46.5,107     c1.1,0.6,2.6,0.3,3.2-0.9l21.1-36.6C71.5,68.4,71.2,67,70,66.4z" fill="#04080A"/></g><g><polygon fill="#9E715F" points="11.6,78.5 14.2,88.4 68.4,73.8 65.8,63.9    "/></g><g opacity="0.15"><path d="M70,66.4L33.4,45.2c-1.1-0.6-2.6-0.3-3.2,0.9l-4.7,8.2c0,0,0,0,0.1,0l40.5,23.4h0.1l4.7-8.2     C71.5,68.4,71.2,67,70,66.4z" fill="#04080A"/></g><g><path d="M70.7,65.3L34.1,44.1c-0.5-0.3-1.2-0.5-1.8-0.5c-1.3,0-2.5,0.7-3.1,1.8L8,82c-1,1.8-0.4,4,1.3,5     l36.6,21.1c0.5,0.3,1.2,0.5,1.8,0.5c1.3,0,2.5-0.7,3.1-1.8L72,70.2c0.5-0.8,0.6-1.8,0.4-2.7C72.1,66.5,71.5,65.8,70.7,65.3z      M69.8,68.9l-21.1,36.6c-0.3,0.5-1,0.7-1.5,0.4L10.6,84.8c-0.5-0.3-0.7-1-0.4-1.5l21.1-36.6c0.2-0.3,0.6-0.5,1-0.5     c0.2,0,0.4,0,0.5,0.1l36.6,21.1c0.3,0.1,0.4,0.4,0.5,0.7C70,68.4,70,68.7,69.8,68.9z" fill="#2D2E2D"/></g><g><path d="M67,63.6c-0.1-0.3-0.3-0.6-0.6-0.8c-0.3-0.2-0.6-0.2-1-0.1L11.3,77.3c-0.7,0.2-1.1,0.9-0.9,1.5l2.7,9.9     c0.1,0.3,0.3,0.6,0.6,0.8c0.2,0.1,0.4,0.2,0.6,0.2c0.1,0,0.2,0,0.3,0L68.8,75c0.7-0.2,1.1-0.9,0.9-1.5L67,63.6z M15.1,86.9     l-2-7.5l51.8-14l2,7.5L15.1,86.9z" fill="#2D2E2D"/></g></g><g><path d="M73.4,65L32.9,41.6c-1.4-0.8-3.2-0.3-4,1.1l-2.2,3.8c-0.8,1.4-0.3,3.2,1.1,4l40.5,23.4    c1.4,0.8,3.2,0.3,4-1.1l2.2-3.8C75.3,67.6,74.8,65.8,73.4,65z" fill="#9E715F"/></g><g><path d="M6.5,87.1C6,86,5.6,84.9,5.2,83.8C4.9,85,5.4,86.4,6.5,87.1z" fill="#9E715F"/><path d="M47.1,110.6c1.4,0.8,3.2,0.3,4-1.1l2.2-3.8c0.8-1.4,0.3-3.2-1.1-4L11.7,78.3c-1.4-0.8-3.2-0.3-4,1.1    l-2.2,3.8c-0.1,0.2-0.2,0.4-0.3,0.6C5.6,84.9,6,86,6.5,87.1l0.1,0.1L47.1,110.6z" fill="#9E715F"/></g><g><path d="M74,63.9L33.5,40.5c-0.6-0.4-1.4-0.6-2.1-0.6c-1.5,0-2.9,0.8-3.6,2.1l-2.2,3.8c-0.6,1-0.7,2.1-0.4,3.2    c0.3,1.1,1,2,2,2.5L67.7,75c0.6,0.4,1.4,0.6,2.1,0.6c1.5,0,2.9-0.8,3.6-2.1l2.2-3.8C76.7,67.6,76,65.1,74,63.9z M73.4,68.4    l-2.2,3.8c-0.4,0.8-1.5,1.1-2.3,0.6L28.4,49.4c-0.4-0.2-0.7-0.6-0.8-1c-0.1-0.4-0.1-0.9,0.2-1.3l2.2-3.8c0.3-0.5,0.9-0.8,1.5-0.8    c0.3,0,0.6,0.1,0.8,0.2l40.5,23.4C73.6,66.6,73.9,67.6,73.4,68.4z" fill="#2D2E2D"/></g><path d="M125.2,31.8c-0.4-2.2-2.2-3.8-4.5-3.8c-0.3,0-0.6,0-1,0.1l-4.5,1l-19.7,4.2c-1.3,0.3-2.3,1.1-3,2.2   l-38.3,66.3c-0.3-0.5-0.8-0.9-1.3-1.2L12.3,77.2c-0.6-0.4-1.4-0.6-2.1-0.6c-1.5,0-2.9,0.8-3.6,2.1l-1.9,3.4l-0.3,0.5   c-1,1.6-0.6,3.7,0.6,5c-0.7,0.4-1.4,1-1.8,1.8c-1.1,2.2-0.2,4.8,1.9,6.1l8.7,5l34.7,20c0.5,0.3,0.9,0.4,1.5,0.5l23.6,4.2   c3.5-0.5,6.9-1.4,10.2-2.5L94.6,104c0.6-1,0.8-2.2,0.5-3.4l-8.8-36l13.3-22.9l20.6-4.4l1.5-0.3C124,36.5,125.6,34.2,125.2,31.8z    M6.6,83.8L8.8,80c0.3-0.5,0.9-0.8,1.5-0.8c0.3,0,0.6,0.1,0.8,0.2l40.5,23.4c0.8,0.4,1.1,1.5,0.6,2.3l-2.2,3.8   c-0.3,0.7-1.2,1-2,0.8L21.2,94.2l-14-8.1C6.4,85.6,6.1,84.6,6.6,83.8z M120.8,34.7l-2.1,0.5l-20.5,4.4c-0.3,0.1-0.6,0.3-0.8,0.6   L83.7,63.9c-0.2,0.3-0.2,0.6-0.1,0.9l9,36.5c0.1,0.5,0,1.1-0.2,1.5l-11.5,19.8c-0.4,0.7-1.3,1.1-2.1,1l-28.3-5.1   c-0.2,0-0.5-0.1-0.7-0.2L10.7,95.8l-4.3-2.5c-1-0.6-1.4-1.8-1-2.8c0.4-0.7,1.1-1.1,1.8-1.1c0.1,0,0.1,0,0.2,0   c-0.1-0.1-0.1-0.3-0.2-0.4l0,0c0.1,0.1,0.1,0.2,0.2,0.4c0.3,0,0.6,0.1,0.9,0.3l38.5,22.2c0.6,0.3,1.3,0.5,1.9,0.5   c1.4,0,2.7-0.7,3.4-1.9l42.6-73.7c0.3-0.5,0.8-0.9,1.3-1l20.6-4.4l3.6-0.8c1.1-0.2,2.3,0.5,2.4,1.7C122.8,33.4,122,34.4,120.8,34.7   z" fill="#2D2E2D"/><g><g><path d="M78.9,98.1c-11,1.9-18.4,12.5-16.4,23.6c0.3,1.5,0.7,2.9,1.2,4.2c0.1,0,0.2,0.1,0.4,0.1     c14.3,0,27.4-4.8,37.9-13C99.2,103,89.3,96.3,78.9,98.1z" fill="#52544F"/></g><path d="M63.6,121.6c-0.9-5.1,0.2-10.1,3.2-14.3c2.9-4.2,7.3-7,12.3-7.8c1.1-0.2,2.2-0.3,3.2-0.3    c8.9,0,16.4,6.1,18.5,14.7c0.7-0.5,1.4-1.1,2.1-1.6C100.3,103,92,96.6,82.3,96.6c-1.2,0-2.5,0.1-3.7,0.3c-5.7,1-10.6,4.1-13.9,8.9    c-3.3,4.7-4.6,10.5-3.6,16.2c0.2,1.4,0.6,2.7,1.1,4c0.6,0,1.2,0,1.8,0c0.3,0,0.6,0,0.9,0C64.3,124.6,63.8,123.1,63.6,121.6z" fill="#2D2E2D"/><g opacity="0.2"><path d="M80.3,106.2c-6.6,1.1-11,7.5-9.9,14.2c0.3,1.9,1.1,3.6,2.1,5c7.9-1.1,15.3-3.7,22-7.4     c0-0.6-0.1-1.2-0.2-1.8C93.2,109.5,86.9,105.1,80.3,106.2z" fill="#060B0D"/></g><path d="M96.4,116.1C95.2,109,89.3,104,82.3,104c-0.8,0-1.6,0.1-2.4,0.2c-3.7,0.7-7,2.7-9.2,5.9    c-2.2,3.1-3,6.9-2.4,10.7c0.3,1.8,1,3.4,1.8,4.9c0.9-0.1,1.8-0.2,2.8-0.3c-1-1.4-1.7-3.1-2.1-4.9c-0.5-3.1,0.2-6.2,2-8.8    c1.8-2.6,4.5-4.3,7.6-4.8c0.7-0.1,1.3-0.2,2-0.2c5.7,0,10.6,4.1,11.6,9.8c0.1,0.5,0.2,1.2,0.2,1.7c0.8-0.4,1.6-0.9,2.4-1.4    C96.5,116.6,96.4,116.3,96.4,116.1z" fill="#2D2E2D"/><g><ellipse cx="78.6" cy="115.6" fill="#2D2F2E" rx="1.2" ry="1.2"/></g><g><ellipse cx="79.8" cy="122.1" fill="#2D2F2E" rx="1.2" ry="1.2"/></g><g><path d="M85.9,119.8c-0.7,0.1-1.1,0.7-1,1.4c0.1,0.4,0.4,0.8,0.8,0.9c0.5-0.2,1-0.4,1.5-0.6     c0.1-0.2,0.2-0.5,0.1-0.7C87.2,120.1,86.6,119.6,85.9,119.8z" fill="#2D2F2E"/></g><g><ellipse cx="85" cy="114.5" fill="#2D2F2E" rx="1.2" ry="1.2"/></g></g></g></svg>