<svg width="128" height="128" xmlns="http://www.w3.org/2000/svg">

 <g>
  <title>background</title>
  <rect fill="none" id="canvas_background" height="402" width="582" y="-1" x="-1"/>
 </g>
 <g>
  <title>Layer 1</title>
  <path opacity="0.1" id="svg_6" fill="#04080A" d="m105.9,103.1c1,1.3 1.8,2.7 2.5,4.2c0.2,-0.2 0.4,-0.4 0.6,-0.6c-0.9,-1.3 -2,-2.5 -3.1,-3.6z"/>
  <circle id="svg_7" r="62" fill="#C1E1CA" cy="64" cx="64"/>
  <circle id="svg_8" r="62" fill="#C1E1CA" cy="64" cx="64"/>
  <path id="svg_12" fill="#EEEBA8" d="m121.4,35.8c1.8,-0.4 2.9,-2.1 2.5,-3.9c-0.4,-1.8 -2.1,-2.9 -3.9,-2.5l-4,0.9c1.3,1.9 2.4,3.9 3.4,6l2,-0.5z"/>
  <path id="svg_13" fill="#EEEBA8" d="m119.4,36.2c-1,-2.1 -2.2,-4.1 -3.4,-6l-20.2,4.3c-0.9,0.2 -1.7,0.8 -2.2,1.6l-43.9,76l-40.8,-23.5c-0.6,-0.4 -1.4,-0.5 -2,-0.4c-1,0.1 -1.9,0.7 -2.4,1.6c-0.9,1.6 -0.4,3.6 1.2,4.5l6.6,3.8l36.9,21.3c0.3,0.2 0.7,0.3 1.1,0.4l26.8,4.8c1.7,-0.4 3.3,-0.8 4.9,-1.3l0,0l11.5,-19.8c0.4,-0.7 0.5,-1.6 0.3,-2.4l-9,-36.5l13.8,-23.9l20.8,-4.5zm-32.3,65.1l-9.7,16.7l-21.3,-3.8l23.9,-41.4l7.1,28.5z"/>
  <path id="svg_14" fill="#498984" d="m123.9,31.9c-0.4,-1.8 -2.1,-2.9 -3.9,-2.5l-4,0.9l-13.6,2.9l1.5,6.4l15.5,-3.3l2,-0.4c1.8,-0.5 2.9,-2.3 2.5,-4z"/>
  <path id="svg_16" fill="#2D2E2D" d="m103.6,32.8c-0.2,-0.7 -0.8,-1.1 -1.5,-0.9c-0.7,0.2 -1.1,0.8 -0.9,1.5l1.5,6.4c0.1,0.6 0.6,1 1.2,1c0.1,0 0.2,0 0.3,0c0.7,-0.2 1.1,-0.8 0.9,-1.5l-1.5,-6.5z"/>
  <path id="svg_17" opacity="0.1" fill="#04080A" d="m82.9,84.4l4.2,16.9l-9.7,16.7l-21.3,-3.8l22.5,-38.9l-3.4,-7.2l-24.2,41.8c-0.7,1.3 -2.3,1.7 -3.6,1l-38.3,-22.2c-0.7,-0.4 -1.5,-0.5 -2.2,-0.5c-0.9,0.1 -1.7,0.5 -2.3,1.3c-1.2,1.6 -0.7,3.8 1,4.8l6.6,3.8l36.9,21.3c0.3,0.2 0.7,0.3 1.1,0.4l26.8,4.8c1.7,-0.4 3.3,-0.8 4.9,-1.3l0,0l10.7,-18.4l-9.7,-20.5z"/>
  <path opacity="0.15" id="svg_19" fill="#000204" d="m93.4,103.5c0.4,-0.7 0.5,-1.6 0.3,-2.4l-0.2,-0.8c-2.3,-1.6 -4.8,-2.7 -7.6,-3.4l1.1,4.4l-9.6,16.7l-19,-3.4c-0.4,2.1 -0.6,4.4 -0.4,6.6l19,3.4c1.7,-0.4 3.3,-0.8 4.9,-1.3l0,0l11.5,-19.8z"/>
  <path id="svg_20" fill="#2D2E2D" d="m80.2,71.5c-0.5,-0.1 -1,0.2 -1.3,0.6l-23.9,41.4c-0.2,0.4 -0.2,0.8 -0.1,1.2c0.2,0.4 0.5,0.6 0.9,0.7l21.3,3.8c0.1,0 0.1,0 0.2,0c0.4,0 0.9,-0.2 1.1,-0.6l9.6,-16.7c0.2,-0.3 0.2,-0.6 0.1,-0.9l-7,-28.6c-0.1,-0.4 -0.4,-0.8 -0.9,-0.9zm-3.4,45.1l-18.7,-3.4l21.5,-37.2l6.1,25.1l-8.9,15.5z"/>
  <path id="svg_22" fill="#9E715F" d="m70,66.4l-36.6,-21.2c-1.1,-0.6 -2.6,-0.3 -3.2,0.9l-21.1,36.6c-0.6,1.1 -0.3,2.6 0.9,3.2l36.5,21.1c1.1,0.6 2.6,0.3 3.2,-0.9l21.1,-36.6c0.7,-1.1 0.4,-2.5 -0.8,-3.1z"/>
  <path opacity="0.15" id="svg_24" fill="#04080A" d="m70,66.4l-36.6,-21.2c-1.1,-0.6 -2.6,-0.3 -3.2,0.9l-21.1,36.6c-0.6,1.1 -0.3,2.6 0.9,3.2l36.5,21.1c1.1,0.6 2.6,0.3 3.2,-0.9l21.1,-36.6c0.7,-1.1 0.4,-2.5 -0.8,-3.1z"/>
  <polygon id="svg_26" points="11.6,78.5 14.2,88.4 68.4,73.8 65.8,63.9    " fill="#9E715F"/>
  <path opacity="0.15" id="svg_28" fill="#04080A" d="m70,66.4l-36.6,-21.2c-1.1,-0.6 -2.6,-0.3 -3.2,0.9l-4.7,8.2c0,0 0,0 0.1,0l40.5,23.4l0.1,0l4.7,-8.2c0.6,-1.1 0.3,-2.5 -0.9,-3.1z"/>
  <path id="svg_30" fill="#2D2E2D" d="m70.7,65.3l-36.6,-21.2c-0.5,-0.3 -1.2,-0.5 -1.8,-0.5c-1.3,0 -2.5,0.7 -3.1,1.8l-21.2,36.6c-1,1.8 -0.4,4 1.3,5l36.6,21.1c0.5,0.3 1.2,0.5 1.8,0.5c1.3,0 2.5,-0.7 3.1,-1.8l21.2,-36.6c0.5,-0.8 0.6,-1.8 0.4,-2.7c-0.3,-1 -0.9,-1.7 -1.7,-2.2zm-0.9,3.6l-21.1,36.6c-0.3,0.5 -1,0.7 -1.5,0.4l-36.6,-21.1c-0.5,-0.3 -0.7,-1 -0.4,-1.5l21.1,-36.6c0.2,-0.3 0.6,-0.5 1,-0.5c0.2,0 0.4,0 0.5,0.1l36.6,21.1c0.3,0.1 0.4,0.4 0.5,0.7c0.1,0.3 0.1,0.6 -0.1,0.8z"/>
  <path id="svg_32" fill="#2D2E2D" d="m67,63.6c-0.1,-0.3 -0.3,-0.6 -0.6,-0.8c-0.3,-0.2 -0.6,-0.2 -1,-0.1l-54.1,14.6c-0.7,0.2 -1.1,0.9 -0.9,1.5l2.7,9.9c0.1,0.3 0.3,0.6 0.6,0.8c0.2,0.1 0.4,0.2 0.6,0.2c0.1,0 0.2,0 0.3,0l54.2,-14.7c0.7,-0.2 1.1,-0.9 0.9,-1.5l-2.7,-9.9zm-51.9,23.3l-2,-7.5l51.8,-14l2,7.5l-51.8,14z"/>
  <path id="svg_34" fill="#9E715F" d="m73.4,65l-40.5,-23.4c-1.4,-0.8 -3.2,-0.3 -4,1.1l-2.2,3.8c-0.8,1.4 -0.3,3.2 1.1,4l40.5,23.4c1.4,0.8 3.2,0.3 4,-1.1l2.2,-3.8c0.8,-1.4 0.3,-3.2 -1.1,-4z"/>
  <path id="svg_36" fill="#9E715F" d="m6.5,87.1c-0.5,-1.1 -0.9,-2.2 -1.3,-3.3c-0.3,1.2 0.2,2.6 1.3,3.3z"/>
  <path id="svg_37" fill="#9E715F" d="m47.1,110.6c1.4,0.8 3.2,0.3 4,-1.1l2.2,-3.8c0.8,-1.4 0.3,-3.2 -1.1,-4l-40.5,-23.4c-1.4,-0.8 -3.2,-0.3 -4,1.1l-2.2,3.8c-0.1,0.2 -0.2,0.4 -0.3,0.6c0.4,1.1 0.8,2.2 1.3,3.3l0.1,0.1l40.5,23.4z"/>
  <path id="svg_39" fill="#2D2E2D" d="m74,63.9l-40.5,-23.4c-0.6,-0.4 -1.4,-0.6 -2.1,-0.6c-1.5,0 -2.9,0.8 -3.6,2.1l-2.2,3.8c-0.6,1 -0.7,2.1 -0.4,3.2c0.3,1.1 1,2 2,2.5l40.5,23.5c0.6,0.4 1.4,0.6 2.1,0.6c1.5,0 2.9,-0.8 3.6,-2.1l2.2,-3.8c1.1,-2.1 0.4,-4.6 -1.6,-5.8zm-0.6,4.5l-2.2,3.8c-0.4,0.8 -1.5,1.1 -2.3,0.6l-40.5,-23.4c-0.4,-0.2 -0.7,-0.6 -0.8,-1c-0.1,-0.4 -0.1,-0.9 0.2,-1.3l2.2,-3.8c0.3,-0.5 0.9,-0.8 1.5,-0.8c0.3,0 0.6,0.1 0.8,0.2l40.5,23.4c0.8,0.5 1.1,1.5 0.6,2.3z"/>
  <path id="svg_40" fill="#2D2E2D" d="m125.2,31.8c-0.4,-2.2 -2.2,-3.8 -4.5,-3.8c-0.3,0 -0.6,0 -1,0.1l-4.5,1l-19.7,4.2c-1.3,0.3 -2.3,1.1 -3,2.2l-38.3,66.3c-0.3,-0.5 -0.8,-0.9 -1.3,-1.2l-40.6,-23.4c-0.6,-0.4 -1.4,-0.6 -2.1,-0.6c-1.5,0 -2.9,0.8 -3.6,2.1l-1.9,3.4l-0.3,0.5c-1,1.6 -0.6,3.7 0.6,5c-0.7,0.4 -1.4,1 -1.8,1.8c-1.1,2.2 -0.2,4.8 1.9,6.1l8.7,5l34.7,20c0.5,0.3 0.9,0.4 1.5,0.5l23.6,4.2c3.5,-0.5 6.9,-1.4 10.2,-2.5l10.8,-18.7c0.6,-1 0.8,-2.2 0.5,-3.4l-8.8,-36l13.3,-22.9l20.6,-4.4l1.5,-0.3c2.3,-0.5 3.9,-2.8 3.5,-5.2zm-118.6,52l2.2,-3.8c0.3,-0.5 0.9,-0.8 1.5,-0.8c0.3,0 0.6,0.1 0.8,0.2l40.5,23.4c0.8,0.4 1.1,1.5 0.6,2.3l-2.2,3.8c-0.3,0.7 -1.2,1 -2,0.8l-26.8,-15.5l-14,-8.1c-0.8,-0.5 -1.1,-1.5 -0.6,-2.3zm114.2,-49.1l-2.1,0.5l-20.5,4.4c-0.3,0.1 -0.6,0.3 -0.8,0.6l-13.7,23.7c-0.2,0.3 -0.2,0.6 -0.1,0.9l9,36.5c0.1,0.5 0,1.1 -0.2,1.5l-11.5,19.8c-0.4,0.7 -1.3,1.1 -2.1,1l-28.3,-5.1c-0.2,0 -0.5,-0.1 -0.7,-0.2l-39.1,-22.5l-4.3,-2.5c-1,-0.6 -1.4,-1.8 -1,-2.8c0.4,-0.7 1.1,-1.1 1.8,-1.1c0.1,0 0.1,0 0.2,0c-0.1,-0.1 -0.1,-0.3 -0.2,-0.4l0,0c0.1,0.1 0.1,0.2 0.2,0.4c0.3,0 0.6,0.1 0.9,0.3l38.5,22.2c0.6,0.3 1.3,0.5 1.9,0.5c1.4,0 2.7,-0.7 3.4,-1.9l42.6,-73.7c0.3,-0.5 0.8,-0.9 1.3,-1l20.6,-4.4l3.6,-0.8c1.1,-0.2 2.3,0.5 2.4,1.7c0.2,1.1 -0.6,2.1 -1.8,2.4z"/>
  <path id="svg_43" fill="#52544F" d="m78.9,98.1c-11,1.9 -18.4,12.5 -16.4,23.6c0.3,1.5 0.7,2.9 1.2,4.2c0.1,0 0.2,0.1 0.4,0.1c14.3,0 27.4,-4.8 37.9,-13c-2.8,-10 -12.7,-16.7 -23.1,-14.9z"/>
  <path id="svg_44" fill="#2D2E2D" d="m63.6,121.6c-0.9,-5.1 0.2,-10.1 3.2,-14.3c2.9,-4.2 7.3,-7 12.3,-7.8c1.1,-0.2 2.2,-0.3 3.2,-0.3c8.9,0 16.4,6.1 18.5,14.7c0.7,-0.5 1.4,-1.1 2.1,-1.6c-2.6,-9.3 -10.9,-15.7 -20.6,-15.7c-1.2,0 -2.5,0.1 -3.7,0.3c-5.7,1 -10.6,4.1 -13.9,8.9c-3.3,4.7 -4.6,10.5 -3.6,16.2c0.2,1.4 0.6,2.7 1.1,4c0.6,0 1.2,0 1.8,0c0.3,0 0.6,0 0.9,0c-0.6,-1.4 -1.1,-2.9 -1.3,-4.4z"/>
  <path opacity="0.2" id="svg_46" fill="#060B0D" d="m80.3,106.2c-6.6,1.1 -11,7.5 -9.9,14.2c0.3,1.9 1.1,3.6 2.1,5c7.9,-1.1 15.3,-3.7 22,-7.4c0,-0.6 -0.1,-1.2 -0.2,-1.8c-1.1,-6.7 -7.4,-11.1 -14,-10z"/>
  <path id="svg_47" fill="#2D2E2D" d="m96.4,116.1c-1.2,-7.1 -7.1,-12.1 -14.1,-12.1c-0.8,0 -1.6,0.1 -2.4,0.2c-3.7,0.7 -7,2.7 -9.2,5.9c-2.2,3.1 -3,6.9 -2.4,10.7c0.3,1.8 1,3.4 1.8,4.9c0.9,-0.1 1.8,-0.2 2.8,-0.3c-1,-1.4 -1.7,-3.1 -2.1,-4.9c-0.5,-3.1 0.2,-6.2 2,-8.8c1.8,-2.6 4.5,-4.3 7.6,-4.8c0.7,-0.1 1.3,-0.2 2,-0.2c5.7,0 10.6,4.1 11.6,9.8c0.1,0.5 0.2,1.2 0.2,1.7c0.8,-0.4 1.6,-0.9 2.4,-1.4c-0.1,-0.2 -0.2,-0.5 -0.2,-0.7z"/>
  <ellipse id="svg_49" ry="1.2" rx="1.2" fill="#2D2F2E" cy="115.6" cx="78.6"/>
  <ellipse id="svg_51" ry="1.2" rx="1.2" fill="#2D2F2E" cy="122.1" cx="79.8"/>
  <path id="svg_53" fill="#2D2F2E" d="m85.9,119.8c-0.7,0.1 -1.1,0.7 -1,1.4c0.1,0.4 0.4,0.8 0.8,0.9c0.5,-0.2 1,-0.4 1.5,-0.6c0.1,-0.2 0.2,-0.5 0.1,-0.7c-0.1,-0.7 -0.7,-1.2 -1.4,-1z"/>
  <ellipse id="svg_55" ry="1.2" rx="1.2" fill="#2D2F2E" cy="114.5" cx="85"/>
 </g>
</svg>